<?xml version="1.0" encoding="utf-8"?>
<!-- Generator: Adobe Illustrator 13.0.0, SVG Export Plug-In . SVG Version: 6.00 Build 14948)  -->
<!DOCTYPE svg PUBLIC "-//W3C//DTD SVG 1.1//EN" "http://www.w3.org/Graphics/SVG/1.1/DTD/svg11.dtd">
<svg version="1.1" id="Layer_1" xmlns="http://www.w3.org/2000/svg" xmlns:xlink="http://www.w3.org/1999/xlink" x="0px" y="0px"
	 width="150.145px" height="28.347px" viewBox="0 0 150.145 28.347" enable-background="new 0 0 150.145 28.347"
	 xml:space="preserve">
<g>
	<g>
		<polygon fill="#0317CE" points="18.634,4.101 12.533,14.628 14.449,15.441 12.287,24.277 18.291,13.806 16.357,12.744 		"/>
		<path fill="#0317CE" d="M25.758,13.781"/>
		<path fill="#0317CE" d="M15.46,0.491c-7.61,0-13.78,6.169-13.78,13.78s6.17,13.781,13.78,13.781
			c7.611,0,13.781-6.17,13.781-13.781S23.071,0.491,15.46,0.491z M15.46,25.689c-6.306,0-11.418-5.112-11.418-11.418
			S9.154,2.853,15.46,2.853c6.307,0,11.418,5.112,11.418,11.418S21.767,25.689,15.46,25.689z"/>
		<path fill="#0317CE" d="M24.522,0c-1.028,0-2,0.243-2.86,0.674c3.871,1.666,6.945,4.828,8.493,8.76
			c0.488-0.903,0.765-1.937,0.765-3.035C30.92,2.865,28.055,0,24.522,0z M0,6.398c0,1.05,0.253,2.041,0.702,2.916
			C2.273,5.418,5.347,2.29,9.206,0.648C8.358,0.233,7.405,0,6.398,0C2.865,0,0,2.865,0,6.398z"/>
		<g>
			<g>
				<path fill="#0317CE" d="M5.557,25.197c-0.87,0-1.575,0.705-1.575,1.575c0,0.87,0.705,1.575,1.575,1.575
					c0.87,0,1.575-0.705,1.575-1.575C7.131,25.902,6.427,25.197,5.557,25.197z M25.364,25.197c-0.87,0-1.575,0.705-1.575,1.575
					c0,0.87,0.705,1.575,1.575,1.575c0.87,0,1.575-0.705,1.575-1.575C26.938,25.902,26.233,25.197,25.364,25.197z"/>
			</g>
		</g>
	</g>
	<g>
		<path fill="#0317CE" d="M45.626,2.713c0,0.058-0.003,0.108-0.008,0.15c-0.005,0.042-0.013,0.076-0.021,0.102
			c-0.009,0.025-0.021,0.042-0.033,0.053c-0.013,0.01-0.028,0.015-0.047,0.015c-0.026,0-0.068-0.018-0.127-0.054
			c-0.058-0.036-0.136-0.075-0.231-0.118c-0.097-0.042-0.212-0.082-0.346-0.118s-0.289-0.054-0.467-0.054
			c-0.188,0-0.359,0.033-0.513,0.098S43.55,2.945,43.44,3.064c-0.108,0.12-0.191,0.264-0.25,0.432s-0.088,0.354-0.088,0.557
			c0,0.223,0.03,0.42,0.09,0.59c0.059,0.17,0.142,0.313,0.248,0.427c0.107,0.115,0.235,0.201,0.385,0.259
			c0.15,0.059,0.315,0.087,0.497,0.087c0.088,0,0.176-0.01,0.263-0.03c0.086-0.02,0.166-0.05,0.241-0.091V4.391h-0.739
			c-0.036,0-0.064-0.022-0.085-0.068c-0.021-0.045-0.03-0.122-0.03-0.23c0-0.057,0.003-0.104,0.008-0.142s0.013-0.069,0.022-0.092
			c0.01-0.023,0.022-0.041,0.036-0.051c0.015-0.011,0.03-0.017,0.049-0.017h1.318c0.032,0,0.061,0.005,0.086,0.017
			c0.025,0.011,0.047,0.027,0.066,0.05c0.019,0.022,0.034,0.048,0.044,0.08s0.015,0.067,0.015,0.107v1.554
			c0,0.061-0.011,0.113-0.031,0.159c-0.021,0.045-0.064,0.081-0.13,0.107s-0.146,0.053-0.243,0.082s-0.196,0.052-0.3,0.072
			s-0.208,0.035-0.314,0.045c-0.105,0.01-0.212,0.015-0.318,0.015c-0.312,0-0.591-0.045-0.837-0.134s-0.455-0.219-0.626-0.389
			c-0.171-0.17-0.302-0.377-0.393-0.622c-0.091-0.245-0.136-0.522-0.136-0.832c0-0.32,0.049-0.607,0.145-0.861
			c0.097-0.255,0.233-0.471,0.411-0.649c0.177-0.178,0.391-0.314,0.641-0.409c0.251-0.095,0.53-0.142,0.838-0.142
			c0.169,0,0.322,0.012,0.461,0.035c0.14,0.023,0.261,0.052,0.364,0.085s0.189,0.069,0.258,0.107s0.116,0.071,0.144,0.1
			c0.026,0.028,0.047,0.068,0.059,0.119S45.626,2.612,45.626,2.713z"/>
		<path fill="#0317CE" d="M70.974,5.715c0.024,0.073,0.039,0.13,0.046,0.172c0.006,0.042-0.002,0.074-0.024,0.095
			s-0.062,0.034-0.118,0.04c-0.056,0.005-0.133,0.007-0.231,0.007c-0.104,0-0.183-0.001-0.24-0.004s-0.102-0.009-0.131-0.018
			c-0.03-0.009-0.052-0.022-0.063-0.038c-0.013-0.016-0.022-0.037-0.03-0.063l-0.263-0.785h-1.466l-0.247,0.763
			c-0.009,0.028-0.019,0.052-0.032,0.071C68.16,5.975,68.139,5.99,68.109,6c-0.029,0.011-0.07,0.019-0.123,0.023
			c-0.054,0.004-0.123,0.006-0.21,0.006c-0.093,0-0.165-0.003-0.217-0.009C67.507,6.014,67.471,6,67.45,5.977
			c-0.02-0.023-0.027-0.056-0.021-0.098c0.006-0.042,0.021-0.099,0.045-0.169l1.204-3.464c0.012-0.034,0.025-0.062,0.042-0.083
			c0.016-0.021,0.041-0.038,0.077-0.048c0.035-0.011,0.084-0.018,0.146-0.021c0.062-0.003,0.145-0.005,0.247-0.005
			c0.118,0,0.213,0.001,0.283,0.005c0.07,0.003,0.125,0.01,0.164,0.021c0.04,0.011,0.067,0.027,0.085,0.05
			c0.018,0.022,0.031,0.052,0.044,0.09L70.974,5.715z M69.182,2.852h-0.003l-0.552,1.659h1.107L69.182,2.852z"/>
		<path fill="#0317CE" d="M97.417,5.902c0,0.02-0.006,0.039-0.017,0.055s-0.031,0.029-0.061,0.039s-0.067,0.018-0.116,0.024
			c-0.048,0.006-0.109,0.009-0.184,0.009c-0.072,0-0.133-0.003-0.182-0.009c-0.048-0.006-0.086-0.014-0.114-0.024
			s-0.048-0.023-0.061-0.039c-0.012-0.016-0.018-0.035-0.018-0.055V2.725h-0.007l-1.131,3.174c-0.009,0.026-0.021,0.048-0.039,0.065
			c-0.019,0.017-0.043,0.031-0.074,0.041c-0.031,0.01-0.071,0.017-0.119,0.02c-0.049,0.003-0.106,0.004-0.175,0.004
			c-0.069,0-0.127-0.002-0.176-0.007c-0.048-0.005-0.088-0.013-0.119-0.024c-0.03-0.011-0.056-0.024-0.073-0.041
			c-0.019-0.016-0.03-0.035-0.036-0.058l-1.093-3.174h-0.006v3.177c0,0.02-0.006,0.039-0.017,0.055
			c-0.012,0.016-0.032,0.029-0.062,0.039c-0.03,0.01-0.069,0.018-0.116,0.024c-0.048,0.006-0.108,0.009-0.183,0.009
			c-0.072,0-0.133-0.003-0.182-0.009c-0.048-0.006-0.087-0.014-0.116-0.024s-0.049-0.023-0.06-0.039
			c-0.012-0.016-0.017-0.035-0.017-0.055V2.423c0-0.103,0.026-0.181,0.081-0.235s0.127-0.082,0.217-0.082h0.52
			c0.093,0,0.172,0.008,0.238,0.023s0.124,0.04,0.172,0.075c0.049,0.035,0.089,0.082,0.121,0.139
			c0.032,0.058,0.061,0.128,0.084,0.213l0.845,2.327h0.013l0.875-2.321c0.026-0.084,0.055-0.156,0.086-0.214
			c0.031-0.059,0.067-0.106,0.108-0.142s0.09-0.062,0.146-0.077s0.121-0.023,0.196-0.023h0.534c0.054,0,0.101,0.007,0.14,0.021
			c0.04,0.014,0.072,0.035,0.097,0.062c0.025,0.027,0.045,0.061,0.058,0.1c0.013,0.04,0.02,0.084,0.02,0.134V5.902z"/>
		<path fill="#0317CE" d="M124.165,5.902c0,0.02-0.006,0.039-0.017,0.055c-0.012,0.016-0.031,0.029-0.061,0.039
			s-0.067,0.018-0.116,0.024c-0.048,0.006-0.109,0.009-0.184,0.009c-0.073,0-0.133-0.003-0.182-0.009
			c-0.048-0.006-0.086-0.014-0.114-0.024s-0.049-0.023-0.061-0.039s-0.019-0.035-0.019-0.055V2.725h-0.006l-1.131,3.174
			c-0.009,0.026-0.021,0.048-0.04,0.065c-0.018,0.017-0.042,0.031-0.073,0.041c-0.031,0.01-0.071,0.017-0.119,0.02
			c-0.049,0.003-0.106,0.004-0.176,0.004c-0.068,0-0.126-0.002-0.175-0.007c-0.048-0.005-0.088-0.013-0.119-0.024
			c-0.031-0.011-0.056-0.024-0.074-0.041c-0.018-0.016-0.029-0.035-0.036-0.058l-1.092-3.174h-0.006v3.177
			c0,0.02-0.006,0.039-0.017,0.055c-0.012,0.016-0.032,0.029-0.063,0.039s-0.068,0.018-0.116,0.024
			c-0.047,0.006-0.107,0.009-0.183,0.009c-0.072,0-0.133-0.003-0.181-0.009c-0.048-0.006-0.087-0.014-0.116-0.024
			s-0.049-0.023-0.061-0.039c-0.011-0.016-0.017-0.035-0.017-0.055V2.423c0-0.103,0.027-0.181,0.082-0.235
			c0.054-0.054,0.127-0.082,0.217-0.082h0.52c0.092,0,0.172,0.008,0.238,0.023s0.123,0.04,0.172,0.075
			c0.048,0.035,0.088,0.082,0.12,0.139c0.033,0.058,0.061,0.128,0.085,0.213l0.845,2.327h0.013l0.875-2.321
			c0.025-0.084,0.055-0.156,0.086-0.214c0.03-0.059,0.067-0.106,0.108-0.142s0.09-0.062,0.146-0.077
			c0.056-0.015,0.121-0.023,0.196-0.023h0.533c0.055,0,0.102,0.007,0.141,0.021c0.039,0.014,0.071,0.035,0.097,0.062
			c0.025,0.027,0.044,0.061,0.058,0.1c0.013,0.04,0.02,0.084,0.02,0.134V5.902z"/>
		<path fill="#0317CE" d="M149.561,5.715c0.024,0.073,0.04,0.13,0.046,0.172c0.006,0.042-0.002,0.074-0.024,0.095
			s-0.062,0.034-0.118,0.04c-0.056,0.005-0.133,0.007-0.231,0.007c-0.104,0-0.183-0.001-0.24-0.004s-0.102-0.009-0.132-0.018
			c-0.029-0.009-0.051-0.022-0.063-0.038c-0.013-0.016-0.022-0.037-0.03-0.063l-0.263-0.785h-1.467l-0.247,0.763
			c-0.009,0.028-0.019,0.052-0.032,0.071c-0.013,0.019-0.034,0.034-0.063,0.045c-0.029,0.011-0.07,0.019-0.124,0.023
			c-0.054,0.004-0.123,0.006-0.21,0.006c-0.093,0-0.165-0.003-0.217-0.009c-0.053-0.006-0.089-0.021-0.109-0.043
			c-0.02-0.023-0.026-0.056-0.021-0.098s0.021-0.099,0.045-0.169l1.204-3.464c0.012-0.034,0.026-0.062,0.042-0.083
			c0.017-0.021,0.042-0.038,0.077-0.048c0.035-0.011,0.084-0.018,0.146-0.021c0.063-0.003,0.145-0.005,0.247-0.005
			c0.119,0,0.214,0.001,0.284,0.005c0.07,0.003,0.125,0.01,0.164,0.021c0.039,0.011,0.067,0.027,0.085,0.05
			c0.017,0.022,0.031,0.052,0.043,0.09L149.561,5.715z M147.769,2.852h-0.003l-0.553,1.659h1.107L147.769,2.852z"/>
		<path fill="#0317CE" d="M48.742,19.91c0,0.175-0.007,0.321-0.022,0.439c-0.015,0.118-0.037,0.213-0.067,0.285
			s-0.068,0.125-0.113,0.158c-0.046,0.033-0.096,0.05-0.149,0.05h-5.884c-0.199,0-0.367-0.059-0.503-0.176S41.8,20.357,41.8,20.091
			V9.88c0-0.266,0.067-0.458,0.203-0.575s0.304-0.176,0.503-0.176h5.848c0.054,0,0.103,0.015,0.145,0.045s0.078,0.083,0.108,0.158
			s0.053,0.172,0.068,0.29c0.015,0.118,0.022,0.267,0.022,0.448c0,0.169-0.008,0.312-0.022,0.43
			c-0.016,0.117-0.038,0.212-0.068,0.285c-0.03,0.072-0.066,0.125-0.108,0.158s-0.091,0.05-0.145,0.05h-4.183v2.86h3.54
			c0.054,0,0.104,0.017,0.149,0.05c0.045,0.033,0.082,0.085,0.112,0.154c0.03,0.07,0.053,0.163,0.068,0.281
			c0.015,0.118,0.022,0.261,0.022,0.43c0,0.175-0.008,0.32-0.022,0.434c-0.016,0.115-0.038,0.207-0.068,0.276
			s-0.067,0.119-0.112,0.149c-0.046,0.03-0.096,0.045-0.149,0.045h-3.54v3.304h4.219c0.054,0,0.104,0.017,0.149,0.05
			c0.045,0.033,0.083,0.086,0.113,0.159s0.053,0.167,0.067,0.285C48.735,19.589,48.742,19.735,48.742,19.91z"/>
		<path fill="#0317CE" d="M57.279,19.847c0,0.181-0.008,0.333-0.023,0.457c-0.015,0.124-0.037,0.227-0.067,0.308
			c-0.03,0.081-0.068,0.14-0.113,0.176s-0.098,0.054-0.158,0.054h-5.368c-0.199,0-0.367-0.059-0.503-0.176s-0.203-0.309-0.203-0.575
			V9.455c0-0.06,0.02-0.114,0.059-0.163c0.039-0.048,0.104-0.087,0.194-0.117c0.091-0.03,0.213-0.055,0.367-0.073
			c0.153-0.018,0.346-0.027,0.574-0.027c0.235,0,0.429,0.009,0.58,0.027c0.15,0.018,0.271,0.042,0.362,0.073
			c0.09,0.03,0.155,0.069,0.194,0.117c0.039,0.049,0.059,0.103,0.059,0.163v9.424h3.685c0.061,0,0.113,0.017,0.158,0.049
			c0.045,0.033,0.083,0.088,0.113,0.163c0.03,0.076,0.053,0.175,0.067,0.299C57.271,19.513,57.279,19.666,57.279,19.847z"/>
		<path fill="#0317CE" d="M65.625,19.91c0,0.175-0.008,0.321-0.023,0.439c-0.015,0.118-0.037,0.213-0.067,0.285
			s-0.068,0.125-0.113,0.158c-0.045,0.033-0.095,0.05-0.149,0.05h-5.884c-0.199,0-0.366-0.059-0.502-0.176s-0.204-0.309-0.204-0.575
			V9.88c0-0.266,0.068-0.458,0.204-0.575s0.303-0.176,0.502-0.176h5.848c0.055,0,0.103,0.015,0.145,0.045
			c0.043,0.03,0.079,0.083,0.109,0.158c0.029,0.076,0.053,0.172,0.067,0.29c0.016,0.118,0.022,0.267,0.022,0.448
			c0,0.169-0.007,0.312-0.022,0.43c-0.015,0.117-0.038,0.212-0.067,0.285c-0.03,0.072-0.066,0.125-0.109,0.158
			c-0.042,0.033-0.09,0.05-0.145,0.05h-4.182v2.86h3.539c0.055,0,0.104,0.017,0.149,0.05s0.083,0.085,0.113,0.154
			c0.03,0.07,0.053,0.163,0.067,0.281c0.016,0.118,0.022,0.261,0.022,0.43c0,0.175-0.007,0.32-0.022,0.434
			c-0.015,0.115-0.037,0.207-0.067,0.276s-0.068,0.119-0.113,0.149s-0.095,0.045-0.149,0.045h-3.539v3.304h4.218
			c0.055,0,0.104,0.017,0.149,0.05c0.045,0.033,0.083,0.086,0.113,0.159s0.053,0.167,0.067,0.285
			C65.617,19.589,65.625,19.735,65.625,19.91z"/>
		<path fill="#0317CE" d="M75.554,19.068c0,0.151-0.005,0.279-0.014,0.385c-0.01,0.105-0.023,0.196-0.041,0.271
			c-0.019,0.076-0.042,0.14-0.072,0.195c-0.03,0.054-0.079,0.116-0.146,0.186s-0.194,0.158-0.385,0.267
			c-0.189,0.109-0.422,0.213-0.696,0.313s-0.589,0.183-0.941,0.249c-0.354,0.066-0.735,0.1-1.146,0.1
			c-0.803,0-1.526-0.124-2.172-0.371c-0.646-0.248-1.195-0.617-1.647-1.109c-0.452-0.492-0.8-1.106-1.04-1.842
			c-0.242-0.736-0.362-1.593-0.362-2.571c0-0.996,0.133-1.88,0.398-2.652c0.265-0.772,0.636-1.421,1.112-1.946
			s1.049-0.923,1.715-1.195c0.667-0.271,1.401-0.407,2.204-0.407c0.326,0,0.64,0.027,0.941,0.081
			c0.302,0.055,0.581,0.125,0.838,0.213c0.256,0.087,0.487,0.188,0.692,0.303s0.349,0.213,0.43,0.294
			c0.082,0.081,0.138,0.149,0.168,0.204s0.054,0.124,0.072,0.208c0.018,0.084,0.031,0.184,0.041,0.299
			c0.009,0.115,0.013,0.256,0.013,0.425c0,0.181-0.006,0.335-0.018,0.462c-0.012,0.126-0.033,0.229-0.063,0.308
			c-0.03,0.079-0.066,0.136-0.108,0.172s-0.091,0.055-0.146,0.055c-0.09,0-0.205-0.053-0.344-0.159s-0.318-0.223-0.538-0.353
			c-0.221-0.13-0.483-0.248-0.788-0.353s-0.668-0.158-1.091-0.158c-0.465,0-0.879,0.095-1.244,0.285
			c-0.365,0.19-0.676,0.461-0.933,0.814c-0.256,0.353-0.451,0.78-0.584,1.281c-0.133,0.501-0.199,1.065-0.199,1.693
			c0,0.688,0.071,1.284,0.213,1.788s0.344,0.918,0.606,1.245c0.263,0.326,0.579,0.569,0.95,0.729c0.371,0.16,0.789,0.24,1.254,0.24
			c0.423,0,0.788-0.05,1.096-0.149s0.571-0.21,0.792-0.331c0.22-0.121,0.401-0.229,0.543-0.326c0.142-0.097,0.252-0.145,0.33-0.145
			c0.061,0,0.109,0.012,0.146,0.036s0.066,0.072,0.09,0.145c0.024,0.072,0.043,0.173,0.055,0.303S75.554,18.851,75.554,19.068z"/>
		<path fill="#0317CE" d="M85.148,10.106c0,0.175-0.007,0.325-0.022,0.448c-0.015,0.124-0.038,0.223-0.067,0.298
			c-0.03,0.076-0.068,0.131-0.113,0.168c-0.046,0.036-0.096,0.054-0.149,0.054h-2.934v9.441c0,0.061-0.02,0.115-0.059,0.163
			s-0.104,0.087-0.194,0.118s-0.213,0.054-0.367,0.072c-0.153,0.018-0.345,0.027-0.574,0.027s-0.421-0.009-0.575-0.027
			c-0.153-0.018-0.275-0.042-0.366-0.072s-0.155-0.069-0.194-0.118c-0.04-0.048-0.06-0.103-0.06-0.163v-9.441H76.54
			c-0.061,0-0.111-0.018-0.154-0.054c-0.042-0.037-0.078-0.092-0.108-0.168c-0.03-0.075-0.053-0.175-0.067-0.298
			c-0.016-0.124-0.023-0.273-0.023-0.448c0-0.181,0.008-0.335,0.023-0.461c0.015-0.127,0.037-0.228,0.067-0.304
			c0.03-0.075,0.066-0.129,0.108-0.163c0.043-0.033,0.094-0.05,0.154-0.05h8.256c0.054,0,0.104,0.017,0.149,0.05
			c0.045,0.033,0.083,0.087,0.113,0.163c0.029,0.076,0.053,0.177,0.067,0.304C85.142,9.771,85.148,9.925,85.148,10.106z"/>
		<path fill="#0317CE" d="M95.224,20.535c0,0.066-0.012,0.122-0.036,0.167c-0.023,0.045-0.081,0.083-0.172,0.113
			s-0.224,0.051-0.398,0.063c-0.175,0.012-0.413,0.018-0.715,0.018c-0.254,0-0.456-0.006-0.606-0.018
			c-0.151-0.012-0.271-0.035-0.357-0.068c-0.088-0.033-0.149-0.076-0.186-0.127s-0.066-0.113-0.091-0.186l-1.05-2.616
			c-0.127-0.295-0.251-0.558-0.371-0.788c-0.121-0.229-0.255-0.421-0.403-0.575c-0.147-0.154-0.318-0.27-0.512-0.349
			c-0.192-0.078-0.416-0.118-0.669-0.118h-0.743v4.463c0,0.061-0.02,0.115-0.059,0.163s-0.104,0.087-0.194,0.118
			s-0.211,0.054-0.362,0.072c-0.15,0.018-0.344,0.027-0.579,0.027c-0.229,0-0.421-0.009-0.575-0.027
			c-0.153-0.018-0.276-0.042-0.366-0.072c-0.091-0.03-0.154-0.069-0.19-0.118s-0.054-0.103-0.054-0.163V9.88
			c0-0.266,0.067-0.458,0.203-0.575s0.304-0.176,0.503-0.176h3.032c0.308,0,0.562,0.006,0.76,0.018
			c0.199,0.012,0.381,0.027,0.544,0.045c0.471,0.067,0.895,0.181,1.271,0.344s0.697,0.375,0.96,0.638
			c0.262,0.263,0.463,0.573,0.602,0.933c0.139,0.359,0.208,0.771,0.208,1.235c0,0.393-0.05,0.75-0.149,1.073
			s-0.246,0.611-0.438,0.865c-0.193,0.253-0.432,0.474-0.716,0.661c-0.283,0.187-0.606,0.338-0.968,0.453
			c0.175,0.084,0.339,0.187,0.493,0.308c0.153,0.121,0.299,0.267,0.435,0.439c0.136,0.172,0.264,0.368,0.385,0.588
			c0.12,0.221,0.238,0.47,0.353,0.747l0.987,2.308c0.09,0.229,0.15,0.397,0.181,0.502C95.209,20.392,95.224,20.475,95.224,20.535z
			 M92.155,12.587c0-0.386-0.088-0.712-0.263-0.978c-0.175-0.265-0.462-0.452-0.86-0.561c-0.12-0.03-0.258-0.054-0.411-0.072
			c-0.154-0.018-0.367-0.027-0.639-0.027h-1.068v3.322h1.214c0.338,0,0.633-0.041,0.887-0.122s0.465-0.196,0.634-0.344
			c0.169-0.147,0.296-0.324,0.38-0.529C92.113,13.07,92.155,12.84,92.155,12.587z"/>
		<path fill="#0317CE" d="M99.361,20.517c0,0.061-0.021,0.115-0.06,0.163s-0.104,0.087-0.194,0.118s-0.211,0.054-0.362,0.072
			c-0.15,0.018-0.344,0.027-0.579,0.027c-0.229,0-0.421-0.009-0.575-0.027c-0.153-0.018-0.275-0.042-0.366-0.072
			s-0.155-0.069-0.194-0.118c-0.04-0.048-0.06-0.103-0.06-0.163V9.455c0-0.06,0.02-0.114,0.06-0.163
			c0.039-0.048,0.105-0.087,0.199-0.117c0.093-0.03,0.215-0.055,0.366-0.073c0.15-0.018,0.341-0.027,0.57-0.027
			c0.235,0,0.429,0.009,0.579,0.027c0.151,0.018,0.271,0.042,0.362,0.073s0.155,0.069,0.194,0.117
			c0.039,0.049,0.06,0.103,0.06,0.163V20.517z"/>
		<path fill="#0317CE" d="M110.016,19.068c0,0.151-0.005,0.279-0.014,0.385s-0.022,0.196-0.041,0.271
			c-0.018,0.076-0.042,0.14-0.072,0.195c-0.03,0.054-0.078,0.116-0.145,0.186s-0.195,0.158-0.385,0.267
			c-0.19,0.109-0.423,0.213-0.697,0.313s-0.589,0.183-0.941,0.249c-0.354,0.066-0.734,0.1-1.146,0.1
			c-0.803,0-1.526-0.124-2.172-0.371c-0.646-0.248-1.195-0.617-1.647-1.109c-0.453-0.492-0.8-1.106-1.041-1.842
			c-0.242-0.736-0.362-1.593-0.362-2.571c0-0.996,0.133-1.88,0.398-2.652s0.637-1.421,1.113-1.946s1.049-0.923,1.715-1.195
			c0.667-0.271,1.402-0.407,2.205-0.407c0.325,0,0.64,0.027,0.941,0.081c0.302,0.055,0.58,0.125,0.837,0.213
			s0.487,0.188,0.692,0.303s0.349,0.213,0.43,0.294c0.082,0.081,0.138,0.149,0.168,0.204s0.055,0.124,0.072,0.208
			c0.019,0.084,0.032,0.184,0.041,0.299s0.014,0.256,0.014,0.425c0,0.181-0.006,0.335-0.019,0.462
			c-0.012,0.126-0.033,0.229-0.063,0.308c-0.03,0.079-0.066,0.136-0.108,0.172s-0.091,0.055-0.145,0.055
			c-0.091,0-0.205-0.053-0.344-0.159c-0.14-0.105-0.318-0.223-0.539-0.353s-0.482-0.248-0.787-0.353
			c-0.306-0.105-0.669-0.158-1.091-0.158c-0.465,0-0.88,0.095-1.245,0.285c-0.365,0.19-0.676,0.461-0.933,0.814
			c-0.256,0.353-0.451,0.78-0.584,1.281c-0.133,0.501-0.199,1.065-0.199,1.693c0,0.688,0.071,1.284,0.213,1.788
			s0.344,0.918,0.606,1.245c0.263,0.326,0.58,0.569,0.951,0.729c0.371,0.16,0.789,0.24,1.253,0.24c0.423,0,0.788-0.05,1.096-0.149
			s0.572-0.21,0.792-0.331c0.221-0.121,0.401-0.229,0.543-0.326c0.143-0.097,0.252-0.145,0.331-0.145
			c0.06,0,0.108,0.012,0.145,0.036s0.066,0.072,0.091,0.145c0.023,0.072,0.042,0.173,0.054,0.303
			C110.01,18.678,110.016,18.851,110.016,19.068z"/>
		<path fill="#0317CE" d="M118.162,19.847c0,0.181-0.007,0.333-0.022,0.457c-0.015,0.124-0.037,0.227-0.067,0.308
			c-0.03,0.081-0.068,0.14-0.113,0.176s-0.099,0.054-0.158,0.054h-5.368c-0.199,0-0.367-0.059-0.503-0.176s-0.203-0.309-0.203-0.575
			V9.455c0-0.06,0.02-0.114,0.059-0.163c0.039-0.048,0.104-0.087,0.194-0.117c0.091-0.03,0.213-0.055,0.367-0.073
			c0.153-0.018,0.346-0.027,0.574-0.027c0.235,0,0.429,0.009,0.58,0.027c0.15,0.018,0.271,0.042,0.361,0.073
			c0.091,0.03,0.156,0.069,0.195,0.117c0.039,0.049,0.059,0.103,0.059,0.163v9.424h3.685c0.06,0,0.113,0.017,0.158,0.049
			c0.045,0.033,0.083,0.088,0.113,0.163c0.03,0.076,0.053,0.175,0.067,0.299C118.155,19.513,118.162,19.666,118.162,19.847z"/>
		<path fill="#0317CE" d="M129.776,14.85c0,0.972-0.12,1.841-0.361,2.607c-0.242,0.766-0.601,1.417-1.078,1.951
			c-0.477,0.534-1.066,0.941-1.77,1.222s-1.516,0.421-2.439,0.421c-0.911,0-1.706-0.119-2.385-0.358
			c-0.68-0.238-1.245-0.602-1.697-1.09c-0.453-0.489-0.793-1.11-1.019-1.865c-0.227-0.754-0.34-1.648-0.34-2.68
			c0-0.947,0.121-1.8,0.362-2.557s0.601-1.402,1.077-1.933c0.477-0.531,1.066-0.938,1.77-1.222s1.52-0.426,2.449-0.426
			c0.887,0,1.67,0.118,2.349,0.353s1.246,0.598,1.702,1.086c0.455,0.489,0.8,1.106,1.031,1.851
			C129.66,12.957,129.776,13.836,129.776,14.85z M127.278,14.977c0-0.616-0.049-1.175-0.145-1.679
			c-0.097-0.504-0.262-0.936-0.494-1.294s-0.541-0.637-0.928-0.833c-0.386-0.196-0.869-0.294-1.448-0.294
			c-0.585,0-1.074,0.11-1.467,0.331c-0.392,0.22-0.709,0.515-0.95,0.882c-0.241,0.368-0.412,0.798-0.512,1.29
			s-0.148,1.012-0.148,1.562c0,0.64,0.048,1.214,0.145,1.725c0.097,0.51,0.26,0.946,0.488,1.308
			c0.229,0.362,0.537,0.638,0.924,0.828c0.386,0.19,0.872,0.285,1.457,0.285c0.586,0,1.074-0.109,1.467-0.326
			c0.393-0.217,0.709-0.513,0.95-0.887c0.241-0.375,0.412-0.811,0.512-1.308C127.229,16.067,127.278,15.538,127.278,14.977z"/>
		<path fill="#0317CE" d="M139.879,19.068c0,0.151-0.004,0.279-0.014,0.385c-0.009,0.105-0.022,0.196-0.04,0.271
			c-0.019,0.076-0.043,0.14-0.073,0.195c-0.03,0.054-0.078,0.116-0.145,0.186s-0.194,0.158-0.385,0.267
			c-0.19,0.109-0.422,0.213-0.697,0.313c-0.274,0.1-0.588,0.183-0.941,0.249c-0.353,0.066-0.734,0.1-1.145,0.1
			c-0.803,0-1.527-0.124-2.173-0.371c-0.646-0.248-1.195-0.617-1.647-1.109c-0.452-0.492-0.8-1.106-1.041-1.842
			s-0.362-1.593-0.362-2.571c0-0.996,0.133-1.88,0.398-2.652s0.637-1.421,1.113-1.946s1.049-0.923,1.716-1.195
			s1.401-0.407,2.204-0.407c0.326,0,0.64,0.027,0.941,0.081c0.302,0.055,0.581,0.125,0.837,0.213
			c0.257,0.087,0.487,0.188,0.693,0.303c0.205,0.115,0.348,0.213,0.43,0.294c0.081,0.081,0.137,0.149,0.167,0.204
			s0.055,0.124,0.072,0.208c0.019,0.084,0.032,0.184,0.041,0.299s0.014,0.256,0.014,0.425c0,0.181-0.006,0.335-0.018,0.462
			c-0.013,0.126-0.033,0.229-0.063,0.308c-0.03,0.079-0.066,0.136-0.109,0.172c-0.042,0.036-0.09,0.055-0.145,0.055
			c-0.091,0-0.205-0.053-0.344-0.159s-0.318-0.223-0.539-0.353c-0.22-0.13-0.482-0.248-0.787-0.353s-0.669-0.158-1.091-0.158
			c-0.465,0-0.88,0.095-1.245,0.285c-0.365,0.19-0.676,0.461-0.932,0.814c-0.257,0.353-0.451,0.78-0.584,1.281
			c-0.133,0.501-0.199,1.065-0.199,1.693c0,0.688,0.07,1.284,0.213,1.788c0.142,0.504,0.344,0.918,0.606,1.245
			c0.262,0.326,0.579,0.569,0.95,0.729c0.371,0.16,0.789,0.24,1.254,0.24c0.422,0,0.787-0.05,1.095-0.149
			c0.309-0.1,0.572-0.21,0.793-0.331c0.22-0.121,0.4-0.229,0.543-0.326c0.142-0.097,0.252-0.145,0.33-0.145
			c0.061,0,0.108,0.012,0.145,0.036s0.066,0.072,0.091,0.145c0.024,0.072,0.042,0.173,0.055,0.303
			C139.873,18.678,139.879,18.851,139.879,19.068z"/>
		<path fill="#0317CE" d="M150.145,20.489c0,0.067-0.017,0.125-0.05,0.177s-0.097,0.094-0.19,0.126
			c-0.094,0.033-0.222,0.059-0.385,0.077s-0.368,0.027-0.615,0.027c-0.393,0-0.675-0.015-0.847-0.045s-0.296-0.076-0.371-0.136
			s-0.134-0.133-0.177-0.217l-3.539-5.558v5.558c0,0.066-0.019,0.124-0.055,0.172s-0.1,0.089-0.189,0.122
			c-0.091,0.033-0.212,0.059-0.362,0.077c-0.151,0.018-0.344,0.027-0.579,0.027c-0.229,0-0.421-0.009-0.575-0.027
			c-0.153-0.018-0.276-0.044-0.366-0.077c-0.091-0.033-0.155-0.074-0.195-0.122c-0.039-0.048-0.059-0.105-0.059-0.172V9.464
			c0-0.066,0.02-0.124,0.059-0.172c0.04-0.048,0.104-0.087,0.195-0.117c0.09-0.03,0.213-0.055,0.366-0.073
			c0.154-0.018,0.346-0.027,0.575-0.027c0.235,0,0.428,0.009,0.579,0.027c0.15,0.018,0.271,0.042,0.362,0.073
			c0.09,0.03,0.153,0.069,0.189,0.117c0.036,0.049,0.055,0.106,0.055,0.172v4.988l3.431-4.979c0.042-0.078,0.094-0.143,0.154-0.194
			s0.139-0.092,0.235-0.123c0.097-0.03,0.22-0.051,0.371-0.063c0.15-0.012,0.344-0.018,0.579-0.018c0.241,0,0.44,0.009,0.598,0.027
			s0.282,0.044,0.376,0.077c0.093,0.033,0.158,0.074,0.194,0.122s0.055,0.103,0.055,0.163c0,0.103-0.027,0.208-0.082,0.317
			c-0.055,0.108-0.157,0.28-0.308,0.516l-3.214,4.209l3.504,5.295c0.133,0.248,0.212,0.412,0.239,0.494
			S150.145,20.441,150.145,20.489z"/>
	</g>
</g>
<g>
	<path fill="#0317CE" d="M14.562,5.452v-0.99c0-0.416,0.334-0.75,0.75-0.75l0,0c0.414,0,0.75,0.334,0.75,0.75l0,0v0.99
		c0,0.414-0.336,0.75-0.75,0.75l0,0C14.896,6.202,14.562,5.866,14.562,5.452L14.562,5.452z"/>
	<path fill="#0317CE" d="M14.562,23.952v-0.99c0-0.416,0.334-0.75,0.75-0.75l0,0c0.414,0,0.75,0.334,0.75,0.75l0,0v0.99
		c0,0.414-0.336,0.75-0.75,0.75l0,0C14.896,24.702,14.562,24.366,14.562,23.952L14.562,23.952z"/>
</g>
<g>
	<path fill="#0317CE" d="M6.557,14.957h-0.99c-0.416,0-0.75-0.334-0.75-0.75l0,0c0-0.414,0.334-0.75,0.75-0.75l0,0h0.99
		c0.414,0,0.75,0.336,0.75,0.75l0,0C7.307,14.623,6.971,14.957,6.557,14.957L6.557,14.957z"/>
	<path fill="#0317CE" d="M25.057,14.957h-0.99c-0.416,0-0.75-0.334-0.75-0.75l0,0c0-0.414,0.334-0.75,0.75-0.75l0,0h0.99
		c0.414,0,0.75,0.336,0.75,0.75l0,0C25.807,14.623,25.471,14.957,25.057,14.957L25.057,14.957z"/>
</g>
</svg>
